<svg width="104" height="64" viewBox="0 0 104 64" fill="currentColor" xmlns="http://www.w3.org/2000/svg">
<path d="M51.7884 9.0625H35.4385V11.6353H51.7884V9.0625Z" />
<path d="M51.7884 25.969H35.4385V28.5418H51.7884V25.969Z" />
<path d="M46.3154 17.5151H35.4385V20.0879H46.3154V17.5151Z" />
<path d="M77.4972 29.5064C72.9901 29.5064 69.3108 25.8311 69.3108 21.3287V16.7345C69.2878 13.7483 66.8502 11.3133 63.8378 11.3133C60.8254 11.3133 58.4798 13.7023 58.4108 16.6426V29.5294H55.6514V8.64868H58.4108V10.7161C59.9056 9.40673 61.8372 8.64868 63.8378 8.64868C68.3449 8.64868 72.0242 12.3241 72.0242 16.8264V21.4206C72.0472 24.4069 74.4848 26.8418 77.4972 26.8418H95.1348V29.5064H77.4972Z" />
<path d="M95.1342 8.64868H78.2324V11.2214H95.1342V8.64868Z" />
<path d="M89.6612 17.791H78.2324V20.3638H89.6612V17.791Z" />
<path d="M74.7837 34.6516H55.6514V37.2244H74.7837V34.6516Z" />
<path d="M74.7837 52.9365H55.6514V55.5093H74.7837V52.9365Z" />
<path d="M69.3108 43.7939H55.6514V46.3667H69.3108V43.7939Z" />
<path d="M16.4669 28.542L20.3762 14.1161L24.2625 28.542H26.723L32.081 9.0625H29.3905L25.4812 23.5802L21.641 9.0625H19.0884L15.2482 23.5802L11.3389 9.0625H8.64844L14.0064 28.542H16.4669Z" />
<path d="M11.4541 37.2933H18.9737V55.5094H21.7791V37.2933H29.2757V34.6516H11.4541V37.2933Z" />
<path d="M47.6953 43.7482H36.8874V34.6516H34.1279V55.5094H36.8874V46.3898H47.6953V55.5094H50.4778V34.6516H47.6953V43.7482Z" />
<path d="M90.3051 46.8038C90.3051 46.8038 90.4661 46.7119 90.5581 46.6889C91.5929 46.1606 92.3977 45.3796 92.9266 44.4148C93.4555 43.45 93.7315 42.3474 93.7315 41.107C93.7315 39.8665 93.4555 38.718 92.9266 37.7532C92.3747 36.7654 91.5929 35.9844 90.5581 35.4561C89.5463 34.9277 88.3505 34.675 86.9708 34.675H78.2324V55.5328H80.9919V47.4929H86.9937C87.1777 47.4929 87.9826 47.4929 88.1665 47.4929L91.8688 55.5558H95.0652L90.3281 46.8497L90.3051 46.8038ZM89.1553 44.3229C88.5574 44.6445 87.7986 44.7823 86.9248 44.7823H80.9689V37.2938H86.9018C87.7756 37.2938 88.5345 37.4546 89.1323 37.7532C89.7302 38.0518 90.1441 38.4653 90.4431 39.0166C90.742 39.5909 90.903 40.28 90.926 41.038C90.926 41.8191 90.765 42.4852 90.4431 43.0365C90.1441 43.5649 89.7072 43.9783 89.1323 44.277L89.1553 44.3229Z" />
</svg>
